<svg width="22" height="22" viewBox="0 0 22 22" fill="none" xmlns="http://www.w3.org/2000/svg">
<rect width="22" height="22" rx="4" fill="white"/>
<path d="M12.4472 17.2764L10.4472 18.2764C9.78231 18.6088 9 18.1253 9 17.382V11.5352C9 11.2008 8.8329 10.8886 8.5547 10.7031L3.4453 7.29687C3.1671 7.1114 3 6.79917 3 6.46482V4C3 3.44772 3.44772 3 4 3H18C18.5523 3 19 3.44772 19 4V6.46482C19 6.79917 18.8329 7.1114 18.5547 7.29687L13.4453 10.7031C13.1671 10.8886 13 11.2008 13 11.5352V16.382C13 16.7607 12.786 17.107 12.4472 17.2764Z" fill="#222F3E"/>
<rect x="10" y="14.571" width="2" height="5" rx="1" transform="rotate(-45 10 14.571)" fill="#1DD1A1"/>
<path d="M14.2781 17.364C13.8876 17.7545 13.2544 17.7545 12.8639 17.364V17.364C12.4734 16.9734 12.4734 16.3403 12.8639 15.9498L17.1065 11.7071C17.4971 11.3166 18.1302 11.3166 18.5208 11.7071V11.7071C18.9113 12.0976 18.9113 12.7308 18.5208 13.1213L14.2781 17.364Z" fill="#1DD1A1"/>
</svg>
