<svg width="22" height="22" viewBox="0 0 22 22" fill="none" xmlns="http://www.w3.org/2000/svg">
<path d="M12.4472 17.2764L10.4472 18.2764C9.78231 18.6088 9 18.1253 9 17.382V11.5352C9 11.2008 8.8329 10.8886 8.5547 10.7031L3.4453 7.29687C3.1671 7.1114 3 6.79917 3 6.46482V4C3 3.44772 3.44772 3 4 3H18C18.5523 3 19 3.44772 19 4V6.46482C19 6.79917 18.8329 7.1114 18.5547 7.29687L13.4453 10.7031C13.1671 10.8886 13 11.2008 13 11.5352V16.382C13 16.7607 12.786 17.107 12.4472 17.2764Z" fill="#222F3E"/>
<circle cx="15" cy="15" r="3.75" fill="white" stroke="#C8D6E5" stroke-width="0.5"/>
<path d="M14.5 12.7648C14.5 12.4887 14.7239 12.2648 15 12.2648V12.2648C15.2761 12.2648 15.5 12.4887 15.5 12.7648V15.2648C15.5 15.541 15.2761 15.7648 15 15.7648V15.7648C14.7239 15.7648 14.5 15.541 14.5 15.2648V12.7648Z" fill="#222F3E"/>
<path d="M15.3352 14.9609C15.5065 15.1775 15.4697 15.4919 15.2531 15.6632V15.6632C15.0365 15.8345 14.7221 15.7978 14.5508 15.5812L13.3102 14.0125C13.1389 13.7959 13.1756 13.4814 13.3922 13.3101V13.3101C13.6088 13.1388 13.9233 13.1756 14.0946 13.3922L15.3352 14.9609Z" fill="#222F3E"/>
</svg>
