<svg width="10" height="15" viewBox="0 0 10 15" fill="none" xmlns="http://www.w3.org/2000/svg">
<path d="M7.15287 15H2.84713C2.35829 15 1.9411 14.6466 1.86073 14.1644L0.194067 4.1644C0.0924779 3.55487 0.56252 3 1.18046 3H8.81954C9.43748 3 9.90752 3.55487 9.80593 4.1644L8.13927 14.1644C8.0589 14.6466 7.64171 15 7.15287 15Z" fill="#EE5253"/>
<path d="M4.5 5.5C4.5 5.22386 4.72386 5 5 5V5C5.27614 5 5.5 5.22386 5.5 5.5V12.5C5.5 12.7761 5.27614 13 5 13V13C4.72386 13 4.5 12.7761 4.5 12.5V5.5Z" fill="#FF6B6B"/>
<path d="M0 1C0 0.447715 0.447715 0 1 0H9C9.55228 0 10 0.447715 10 1V2H0V1Z" fill="#EE5253"/>
<path d="M1.33902 5.66605C1.29107 5.3941 1.47265 5.13477 1.7446 5.08682V5.08682C2.01655 5.03887 2.27588 5.22045 2.32383 5.4924L3.53937 12.3861C3.58732 12.658 3.40573 12.9173 3.13379 12.9653V12.9653C2.86184 13.0132 2.60251 12.8317 2.55456 12.5597L1.33902 5.66605Z" fill="#FF6B6B"/>
<path d="M7.65805 5.50193C7.706 5.22998 7.96533 5.04839 8.23728 5.09635V5.09635C8.50922 5.1443 8.69081 5.40363 8.64286 5.67557L7.42732 12.5692C7.37937 12.8412 7.12004 13.0228 6.84809 12.9748V12.9748C6.57614 12.9269 6.39456 12.6675 6.44251 12.3956L7.65805 5.50193Z" fill="#FF6B6B"/>
</svg>
